<svg viewBox="0 0 500 500" fill="none" xmlns="http://www.w3.org/2000/svg" width="1em" height="1em"><path d="M250 500c138.071 0 250-111.929 250-250S388.071 0 250 0 0 111.929 0 250s111.929 250 250 250" fill="#6f4eff"/><path fill-rule="evenodd" clip-rule="evenodd" d="M347.89 278.398c-1.51-.378-2.767-.755-3.9-1.258a9 9 0 0 1-2.077-1.263c-.456-.371-.649-.965-.594-1.55.592-6.282-.067-11.832.533-18.068 2.516-25.41 18.491-17.359 32.831-21.511 8.156-2.297 16.311-6.797 19.39-15.607.569-1.626.082-3.403-1.057-4.695-9.346-10.597-19.685-19.965-30.912-28.001-37.772-26.893-86.828-38.105-131.932-31.675-1.904.271-2.902 2.379-1.853 3.991a69.7 69.7 0 0 0 21.006 20.783c1.736 1.105 1.026 3.424-.973 2.936-4.091-.997-9.144-2.825-13.923-6.177a2 2 0 0 0-1.884-.234c-2.19.873-5.264 2.098-7.888 3.223-1.754.751-2.111 3.007-.662 4.249 22.488 19.273 54.95 22.297 80.596 7.1 1.764-1.045 4.628 1.186 4.084 3.162-.761 2.761-1.629 6.427-2.548 11.259-6.415 32.454-24.906 29.938-47.8 21.762-45.536-16.504-71.46-2.551-94.454-30.066-1.798-2.151-4.938-2.91-7.015-1.029a21.92 21.92 0 0 0-7.214 16.252c0 7.558 3.87 14.042 9.623 17.96.806.549 1.884.317 2.491-.446 1.162-1.459 2.158-2.507 3.291-3.241 1.667-1.077 2.552 1.385 1.113 2.751-4.47 4.242-5.889 9.397-8.971 19.203-5.031 15.976-2.892 32.328-26.416 36.605-12.453.629-12.201 9.057-16.73 21.636-5.208 15.047-12.014 21.787-24.534 34.821-1.936 2.016-2.112 5.253.058 7.014 4.97 4.034 10.09 4.208 15.294 2.066 13.208-5.535 23.397-22.642 32.957-33.712 10.692-12.327 36.353-7.044 55.725-19.12 10.075-6.178 16.272-14.008 14.901-25.552-.263-2.208 2.247-3.489 3.085-1.43a36.7 36.7 0 0 1 2.462 9.574c.13 1.111 1.125 1.934 2.243 1.88 20.796-1.009 47.592 21.677 72.697 28.082 1.709.436 2.932-1.537 1.979-3.021a46.6 46.6 0 0 1-3.779-7.143 53 53 0 0 1-2.219-6.438c-.588-2.171 2.596-2.803 3.749-.872 6.706 11.238 19.404 21.518 36.836 22.782 6.164.504 12.957-.251 20.001-2.39 8.428-2.516 16.227-5.786 25.535-4.025 6.919 1.258 13.334 4.78 17.36 10.692 5.602 8.171 17.379 10.385 23.771 2.017.982-1.286 1.062-3.031.421-4.516-14.062-32.577-49.461-34.828-64.697-38.76" fill="#fff"/></svg>
