<svg xmlns="http://www.w3.org/2000/svg" viewBox="0 0 200 200" width="1em" height="1em"><path fill="currentColor" d="M198.433 116.954A100 100 0 0 0 200 99.271c0-5.105-.383-10.12-1.128-15.011-.283-1.894-1.935-3.255-3.85-3.255h-63.844a3.175 3.175 0 0 1-3.07-3.999l7.558-28.207a4.76 4.76 0 0 1 4.601-3.531h37.922c2.525 0 4.021-2.78 2.525-4.809C162.638 15.918 133.545 0 100.73 0 45.904 0 1.459 44.445 1.459 99.271c0 24.958 9.218 47.77 24.427 65.213 1.618 1.858 4.596 1.084 5.226-1.29L53.08 80.828c.403-1.518-.737-3-2.306-3H31.701a3.173 3.173 0 0 1-3.07-3.991l6.189-23.23c.468-1.745 2.049-2.95 3.851-2.985 20.783-.433 41.325-5.871 59.556-15.827 1.886-1.029 4.169.695 3.608 2.772L61.439 186.076c-.609 2.261.519 4.637 2.695 5.503 11.324 4.494 23.675 6.962 36.596 6.962 31.333 0 59.279-14.514 77.474-37.19 1.608-2.015.133-4.901-2.447-4.901h-64.796a3.177 3.177 0 0 1-3.07-3.999l7.558-28.207a4.77 4.77 0 0 1 4.603-3.531h73.801c2.233 0 4.183-1.553 4.58-3.759" style="stroke-width:1;fill:currentcolor"/></svg>
