<svg viewBox="0 0 210 180" xmlns="http://www.w3.org/2000/svg" width="1em" height="1em"><path d="m110.743 169.825 89.951-104.944a7.5 7.5 0 0 0 .226-9.486l-35-45A7.5 7.5 0 0 0 160 7.5H50a7.5 7.5 0 0 0-5.92 2.895l-35 45a7.5 7.5 0 0 0 .226 9.486l89.951 104.944a7.6 7.6 0 0 0 1.958 1.65 7.5 7.5 0 0 0 4.364 1.003 7.5 7.5 0 0 0 5.164-2.653Z" stroke="#000" stroke-width="15" stroke-linejoin="round"/><path d="M80 15H50L15 60h50z" fill="#BDDDF4"/><path d="m195 60-35-45h-30l15 45z" fill="#5DADEC"/><path d="M145 60h50l-90 105z" fill="#4289C1"/><path d="M65 60H15l90 105zm15-45L65 60h80l-15-45z" fill="#8CCAF7"/><path d="M105 165 65 60h80z" fill="#5DADEC"/></svg>
