<svg class="icon" viewBox="0 0 1088 1024" xmlns="http://www.w3.org/2000/svg" width="1em" height="1em"><path d="M134.976 96h163.648a38.4 38.4 0 0 1 38.4 38.4v165.376a38.4 38.4 0 0 1-38.4 38.4H135.04a38.4 38.4 0 0 1-38.4-38.4V134.4a38.4 38.4 0 0 1 38.4-38.4zm0 298.24h163.648a38.4 38.4 0 0 1 38.4 38.4v165.44a38.4 38.4 0 0 1-38.4 38.4H135.04a38.4 38.4 0 0 1-38.4-38.4V432.64a38.4 38.4 0 0 1 38.4-38.4z" fill="currentColor" fill-opacity=".7"/><path d="M726.528 96h163.648a38.4 38.4 0 0 1 38.4 38.4v165.376a38.4 38.4 0 0 1-38.4 38.4H726.528a38.4 38.4 0 0 1-38.4-38.4V134.4a38.4 38.4 0 0 1 38.4-38.4M429.44 394.24h163.712a38.4 38.4 0 0 1 38.4 38.4v165.44a38.4 38.4 0 0 1-38.4 38.4H429.44a38.4 38.4 0 0 1-38.4-38.4V432.64a38.4 38.4 0 0 1 38.4-38.4M134.976 685.76h163.648a38.4 38.4 0 0 1 38.4 38.4V889.6a38.4 38.4 0 0 1-38.4 38.4H135.04a38.4 38.4 0 0 1-38.4-38.4V724.16a38.4 38.4 0 0 1 38.4-38.4z" fill="currentColor"/><path d="M726.528 394.24h163.648a38.4 38.4 0 0 1 38.4 38.4v165.44a38.4 38.4 0 0 1-38.4 38.4H726.528a38.4 38.4 0 0 1-38.4-38.4V432.64a38.4 38.4 0 0 1 38.4-38.4M429.44 685.76h163.712a38.4 38.4 0 0 1 38.4 38.4V889.6a38.4 38.4 0 0 1-38.4 38.4H429.44a38.4 38.4 0 0 1-38.4-38.4V724.16a38.4 38.4 0 0 1 38.4-38.4m258.688 0h202.048a38.4 38.4 0 0 1 38.4 38.4V889.6a38.4 38.4 0 0 1-38.4 38.4H726.528a38.4 38.4 0 0 1-38.4-38.4z" fill="currentColor" fill-opacity=".5"/><path d="M429.44 96h163.712a38.4 38.4 0 0 1 38.4 38.4v165.376a38.4 38.4 0 0 1-38.4 38.4H429.44a38.4 38.4 0 0 1-38.4-38.4V134.4a38.4 38.4 0 0 1 38.4-38.4" fill="currentColor" fill-opacity=".8"/></svg>