<svg xmlns="http://www.w3.org/2000/svg" viewBox="0 0 100 100" width="1em" height="1em"><defs><path id="a" d="M86.353 25.158h217.583v60.515H86.353z"/></defs><path data-type="polygon" d="m88.079 76.618-8.352 7.924zl-9.528-9.04z"/><path d="m61.1 52.9-4.9 4.9c2.5 1.2 4.3 3.8 4.3 6.9 0 4.2-3.4 7.6-7.6 7.6-3 0-5.6-1.8-6.9-4.3l-5.9 5.9-.1.1 21 21 8.1-8.1c-3.2 0-5.9-2.6-5.9-5.9s2.6-5.9 5.9-5.9c3.2 0 5.9 2.6 5.9 5.9l7.1-7.1-8.1-8-.6-.6h.4c3.2 0 5.9-2.6 5.9-5.9 0-1.5-.6-2.8-1.5-3.9-1-.9-2.4-1.5-3.9-1.5-3.2 0-5.9 2.6-5.9 5.9v.4l-.4-.4z" transform="matrix(1.17623 0 0 1.11607 -8.49 -6.027)" style="fill:currentcolor"/><path d="M46.5 49.5c-4.2 0-7.6-3.4-7.6-7.6 0-3 1.7-5.6 4.2-6.8l-5.9-5.9-21 21 22.2 22.2 9.5-9.5c-.3.6-.4 1.3-.4 2 0 2.9 2.4 5.3 5.3 5.3s5.3-2.4 5.3-5.3-2.4-5.3-5.3-5.3c-.7 0-1.4.1-2 .4l8.6-8.6-6-6c-1.3 2.3-3.9 4.1-6.9 4.1" transform="matrix(1.17623 0 0 1.11607 -8.431 -5.971)" style="fill:currentcolor"/><path d="m83.3 27.4-8.7-8.7h.4c3.2 0 5.9-2.6 5.9-5.9C80.9 9.6 78.3 7 75 7c-3.2 0-5.9 2.6-5.9 5.9v.4L61 5.2l-21 21-.7.8-.4.4 9.5 9.5q-.9-.3-1.8-.3c-2.9 0-5.3 2.4-5.3 5.3s2.4 5.3 5.3 5.3 5.3-2.4 5.3-5.3c0-.5-.1-.9-.2-1.4 0-.2-.1-.3-.1-.5l.5.5 9.2 9.2.4-.4.8-.8 6.8-6.8c-3.2 0-5.9-2.6-5.9-5.9s2.6-5.9 5.9-5.9c3.2 0 5.9 2.6 5.9 5.9z" transform="matrix(1.17623 0 0 1.11607 -8.313 -5.804)" style="fill:currentcolor"/><path d="M52.38 39.397h.353l-.47-.558c0 .112 0 .335.117.558"/><g aria-label="NeoDB" transform="matrix(1.4993 0 0 1.61929 -31.547 -42.065)" style="font-size:40px;line-height:1.25;white-space:pre;shape-inside:url(#a);fill:#083b66"/></svg>
