<svg class="icon" viewBox="0 0 1024 1024" xmlns="http://www.w3.org/2000/svg" width="1em" height="1em"><path d="M464.998 85.948c-40.396 5.53-99.174 28.057-127.078 48.742a66 66 0 0 1-9.882 6.195 240 240 0 0 0-21.145 16.18c-37.069 31.18-68.25 72.601-85.914 113.817-9.37 22.119-12.441 31.13-21.299 64.154-2.867 11.264-6.963 16.384-13.158 16.384-10.65 0-65.792 23.552-82.79 35.277-12.75 9.01-43.52 36.505-49.05 44.032-28.826 39.424-34.202 49.254-43.418 78.13C3.277 534.102 0 555.658 0 581.872c0 65.434 22.528 120.166 68.71 166.195 28.468 28.57 61.901 49.1 96.359 58.675 40.55 11.316 28.672 11.11 345.497 11.11 266.24 0 293.735-.358 311.604-3.43 21.76-3.993 54.17-12.544 58.01-15.462 1.433-1.075 5.734-3.226 9.676-4.71 9.472-3.636 31.13-17.818 47.36-30.772 52.685-42.188 85.709-112.128 85.914-181.862 0-20.173-7.988-66.253-13.364-76.493a29.8 29.8 0 0 1-3.123-8.601c0-3.687-15.77-34.407-20.121-39.527a169 169 0 0 1-9.421-12.902c-7.987-12.75-18.227-23.552-38.144-40.192-19.866-17.05-32.82-25.856-43.008-29.952a46 46 0 0 1-9.472-4.506c-2.919-2.048-39.783-15.616-50.023-18.227a341 341 0 0 0-37.99-3.277c-34.458-1.229-59.443 1.229-76.851 7.783-6.144 2.252-15.616 5.53-20.89 7.424-12.493 4.096-37.939 18.022-50.073 27.29-25.856 19.865-79.156 67.634-108.493 97.382-11.469 11.724-147.559 142.848-192.461 185.548-11.264 10.701-28.109 27.239-37.53 36.71l-17.05 17-34.098-1.486a585 585 0 0 1-52.276-4.096c-53.299-8.806-97.177-48.998-111.718-102.502-4.3-15.616-4.71-55.091-.82-70.707 6.76-26.675 26.215-57.395 47.77-75.47 22.733-19.045 62.516-33.177 93.236-33.177 36.915 0 77.926 19.047 114.227 52.89 6.963 6.298 17.203 15.309 22.528 19.866 5.53 4.454 15.77 13.516 22.579 19.865 6.912 6.554 13.722 11.93 15.36 11.93 3.686 0 11.725-6.759 40.806-35.277 13.722-13.568 25.037-25.856 25.037-27.29s-9.011-10.24-19.917-19.456c-11.059-9.472-21.504-18.432-23.398-20.53-3.891-4.506-40.55-34.254-59.443-48.385a254.5 254.5 0 0 0-64-33.638c-9.984-3.891-18.637-7.783-18.995-9.216-1.076-2.663 11.878-39.783 18.022-51.251 12.698-24.372 28.877-45.108 52.275-67.277 21.35-20.122 56.013-39.373 83.661-46.285 4.506-1.075 14.131-3.686 21.504-5.53 9.83-2.662 21.094-3.686 43.11-3.686 25.6 0 32.564.82 51.252 5.53 40.755 10.65 68.3 24.422 96.102 48.588 17.869 15.616 36.352 37.325 48.026 57.19 5.376 9.063 10.496 16.846 11.264 17.46a63.5 63.5 0 0 0 14.796-2.253c7.373-1.638 27.648-3.686 45.159-4.3 35.584-1.64 36.659-2.049 29.03-16.436-2.048-4.096-5.12-11.264-6.553-15.77a78 78 0 0 0-7.22-15.36 85 85 0 0 1-5.683-10.24c-4.505-9.42-23.142-34.406-40.601-54.476-21.146-24.218-58.83-52.48-90.01-67.687a4837 4837 0 0 0-23.194-11.468c-3.686-1.844-10.24-4.148-37.273-12.544-34.304-10.906-87.86-14.439-130.663-8.653zm349.748 356.915c37.734 9.626 58.675 21.914 80.793 47.77 22.989 26.419 31.54 50.227 32.615 88.985.87 24.013.41 27.648-4.506 42.803-7.014 21.607-13.773 35.124-24.218 47.872-19.916 24.372-48.793 43.213-76.083 49.613a408 408 0 0 1-42.189 4.71c-37.939 2.458-345.856 2.612-347.34.257-.564-1.076 21.196-23.45 48.435-49.664 27.238-26.47 55.552-53.965 62.925-61.287 22.118-21.76 107.008-102.912 119.09-113.817a193 193 0 0 0 12.954-12.75c2.612-4.095 30.72-24.422 42.855-30.77 5.939-3.277 17.869-7.988 26.265-10.65 8.397-2.458 16.384-4.966 17.408-5.325 5.888-2.048 39.988-.614 50.996 2.253m0 0" fill="#2c2c2c"/></svg>